<svg xmlns="http://www.w3.org/2000/svg" xmlns:xlink="http://www.w3.org/1999/xlink" width="1080" zoomAndPan="magnify" viewBox="0 0 810 1012.49997" height="1350" preserveAspectRatio="xMidYMid meet" version="1.0"><defs><clipPath id="4d18d923bf"><path d="M 0.199219 0 L 809.800781 0 L 809.800781 1012 L 0.199219 1012 Z M 0.199219 0 " clip-rule="nonzero"/></clipPath></defs><g clip-path="url(#4d18d923bf)"></g><path fill="#50c89f" d="M 801.484375 183.933594 C 767.257812 137.492188 728.039062 94.75 694.59375 47.621094 C 687.621094 37.476562 675.75 32.75 663.707031 33.773438 C 499.875 33.773438 336.054688 33.941406 172.226562 33.773438 C 154.683594 35.40625 130.78125 25.351562 118.824219 43.582031 C 85.96875 87.609375 50.542969 129.664062 16.316406 172.664062 C 7.882812 182.039062 0.488281 195.621094 9.777344 207.414062 C 37.550781 259.613281 67.046875 310.867188 95.089844 362.898438 C 100.9375 371.929688 107.558594 386.980469 121.226562 383.109375 C 136.789062 383.710938 148.3125 364.191406 140.75 350.863281 C 114.34375 300.386719 84.765625 251.625 59.140625 200.792969 C 75.734375 161.917969 111.171875 132.941406 135.332031 98.027344 C 169.558594 159.425781 201.378906 222.207031 236.894531 282.835938 C 248.164062 302.355469 280.410156 290.578125 278.773438 268.566406 C 272.324219 250.589844 262.089844 234.25 252.800781 217.65625 C 354.199219 216.964844 455.585938 217.65625 556.980469 217.308594 C 547.949219 233.816406 537.714844 249.824219 531.441406 267.621094 C 526.882812 290.667969 562.488281 302.789062 573.152344 282.324219 C 608.925781 222.039062 639.890625 159.003906 674.628906 98.117188 C 695.351562 124.777344 716.851562 150.828125 738.183594 177.066406 C 744.113281 185.578125 756.070312 196.933594 747.382812 207.765625 C 721.410156 257.640625 691.3125 305.460938 666.886719 356.113281 C 661.46875 378.726562 695.695312 394.464844 707.652344 373.566406 C 737.75 323.089844 764.324219 270.542969 793.734375 219.714844 C 798.984375 208.871094 809.5625 196.222656 801.484375 183.933594 Z M 801.484375 183.933594 " fill-opacity="1" fill-rule="nonzero"/><path fill="#50c89f" d="M 340.707031 292.203125 C 198.976562 319.289062 81.761719 442.875 63.710938 586.226562 C 48.050781 696.480469 93.285156 811.367188 176.351562 884.734375 C 250.742188 953.453125 356.945312 986.644531 457.140625 969.957031 C 545.035156 956.457031 625.265625 906.144531 678.753906 835.546875 C 743.945312 751.703125 766.304688 635.945312 734.738281 534.203125 C 688.054688 370.542969 509.085938 255.652344 340.707031 292.203125 Z M 340.707031 292.203125 " fill-opacity="1" fill-rule="nonzero"/></svg>

